<svg width="132" height="61" viewBox="0 0 132 61" fill="none" xmlns="http://www.w3.org/2000/svg">
<path d="M31.7619 6.18349C31.7352 6.19015 31.4785 6.23349 31.1952 6.28349C30.7252 6.36349 30.3319 6.44015 29.8285 6.55015C29.7119 6.57349 29.6419 6.60682 29.6352 6.64015C29.6252 6.70015 29.8552 6.85349 30.2119 7.02349C30.3419 7.08349 30.5119 7.17015 30.5952 7.21682L30.7452 7.29682L30.7819 7.64015C30.8452 8.21349 30.9385 8.61349 31.0019 8.59349C31.0219 8.58682 31.0819 8.49682 31.1385 8.40015C31.3919 7.92682 31.4419 7.83349 31.5519 7.61682C31.6152 7.48682 31.6819 7.36015 31.6985 7.33349C31.7152 7.30682 31.7985 7.14015 31.8852 6.96682C31.9685 6.79349 32.0819 6.56349 32.1352 6.45682C32.2652 6.20349 32.2485 6.16682 32.0052 6.17015C31.8985 6.17349 31.7885 6.18015 31.7619 6.18349Z" fill="white"/>
<path d="M26.8686 7.52352C26.6319 7.54018 26.6186 7.59685 26.7986 7.76685C27.1853 8.12352 27.1853 8.12352 27.2053 8.37685C27.2153 8.50352 27.2353 8.61685 27.2453 8.62685C27.2686 8.65352 27.5253 8.36352 27.5286 8.30685C27.5286 8.28685 27.5419 8.26685 27.5586 8.26685C27.6086 8.26685 28.0619 7.63352 28.0619 7.56352C28.0619 7.50352 28.0353 7.50018 27.5553 7.50685C27.2753 7.51018 26.9653 7.51685 26.8686 7.52352Z" fill="white"/>
<path d="M22.362 7.83353C22.362 7.87686 22.682 8.17686 22.8286 8.26686C22.8786 8.29686 22.8853 8.48019 22.852 8.80686C22.832 9.00353 22.8353 9.06686 22.8653 9.06686C22.9153 9.06686 23.562 8.41686 23.562 8.37019C23.562 8.35019 23.5886 8.31686 23.6253 8.29353C23.7186 8.22686 23.9953 7.89353 23.9953 7.84353C23.9953 7.81019 23.8286 7.80019 23.1786 7.80019C22.6753 7.80019 22.362 7.81353 22.362 7.83353Z" fill="white"/>
<path d="M29.6552 8.11349C29.6052 8.14016 29.5452 8.17683 29.5219 8.19683C29.4985 8.21683 29.3885 8.2935 29.2785 8.36349C29.1685 8.43349 28.9685 8.56683 28.8319 8.6535C28.6952 8.7435 28.5619 8.83016 28.5319 8.85016C28.5019 8.86683 28.4252 8.9235 28.3585 8.9735C28.2919 9.02683 28.2219 9.06683 28.2019 9.06683C28.1852 9.06683 28.1519 9.09016 28.1285 9.11683C28.1085 9.14016 28.0052 9.2135 27.9052 9.27349C27.8019 9.3335 27.6952 9.40016 27.6652 9.41683C27.6352 9.43683 27.5452 9.4935 27.4619 9.54683C27.3785 9.59683 27.2485 9.68349 27.1719 9.73683C27.0952 9.79016 27.0219 9.8335 27.0085 9.8335C26.9952 9.8335 26.9385 9.86683 26.8819 9.91016C26.7919 9.97683 26.6685 10.0535 26.3552 10.2335C26.0552 10.4068 25.9252 10.4835 25.7619 10.5835C25.6619 10.6468 25.4952 10.7435 25.3952 10.8002C25.2952 10.8568 25.1385 10.9435 25.0452 10.9968C24.9552 11.0468 24.8085 11.1302 24.7219 11.1768C24.1485 11.5002 23.9419 11.6068 22.9619 12.1002C22.1119 12.5302 21.5952 12.7768 21.0619 13.0135C20.9052 13.0835 20.7052 13.1735 20.6119 13.2168C20.5219 13.2568 20.3552 13.3302 20.2452 13.3768C20.1352 13.4235 19.9419 13.5068 19.8152 13.5635C19.6919 13.6202 19.5752 13.6668 19.5619 13.6668C19.5452 13.6668 19.4352 13.7102 19.3185 13.7668C19.1985 13.8202 19.0852 13.8668 19.0685 13.8668C19.0485 13.8668 18.9352 13.9102 18.8185 13.9668C18.6985 14.0202 18.5852 14.0668 18.5619 14.0668C18.5419 14.0668 18.4552 14.0968 18.3719 14.1368C18.2852 14.1768 18.1419 14.2302 18.0485 14.2568C17.9552 14.2835 17.8652 14.3202 17.8452 14.3335C17.8285 14.3468 17.7219 14.3868 17.6119 14.4168C17.5019 14.4502 17.3319 14.5102 17.2352 14.5535C17.1385 14.5968 17.0352 14.6335 17.0019 14.6335C16.9719 14.6335 16.8919 14.5668 16.8285 14.4835C16.7652 14.4002 16.6752 14.2902 16.6285 14.2402C16.5819 14.1902 16.4719 14.0602 16.3785 13.9535C16.2885 13.8468 16.1619 13.7068 16.1019 13.6435C15.9752 13.5035 15.9685 13.4668 16.0685 13.4668C16.1085 13.4668 16.2919 13.4202 16.4752 13.3635C16.6619 13.3068 16.9385 13.2235 17.0952 13.1768C17.3752 13.0935 17.7085 12.9835 18.1285 12.8368C18.2485 12.7968 18.4352 12.7368 18.5452 12.7035C18.6552 12.6702 18.8219 12.6135 18.9119 12.5768C19.0752 12.5102 19.2519 12.4468 19.5819 12.3335C19.6752 12.3002 19.8152 12.2435 19.8952 12.2035C19.9752 12.1668 20.0619 12.1335 20.0852 12.1335C20.1119 12.1335 20.2185 12.0868 20.3285 12.0335C20.4385 11.9768 20.5419 11.9335 20.5619 11.9335C20.5819 11.9335 20.6952 11.8868 20.8119 11.8335C20.9285 11.7768 21.0352 11.7335 21.0452 11.7335C21.0585 11.7335 21.1652 11.6868 21.2885 11.6302C21.7252 11.4268 22.2785 11.1635 22.3785 11.1102C22.6352 10.9702 22.9252 10.8202 23.0419 10.7602C23.1152 10.7235 23.1952 10.6735 23.2219 10.6468C23.2452 10.6202 23.2819 10.6002 23.3019 10.6002C23.3185 10.6002 23.4019 10.5535 23.4852 10.5002C23.5652 10.4435 23.6385 10.4002 23.6452 10.4002C23.6519 10.4002 23.7252 10.3535 23.8052 10.3002C23.8885 10.2435 23.9685 10.2002 23.9885 10.2002C24.0052 10.2002 24.0385 10.1768 24.0619 10.1502C24.0819 10.1268 24.1785 10.0568 24.2719 10.0002C24.4919 9.87016 24.9285 9.59016 25.1785 9.41683C25.2852 9.34349 25.3952 9.26683 25.4252 9.25016C25.7819 9.01683 25.8819 8.95016 25.9119 8.92683C26.1152 8.76683 26.1619 8.7235 26.1619 8.6935C26.1619 8.6435 25.9619 8.68349 25.7385 8.77683C25.1519 9.02683 25.0519 9.06683 25.0219 9.06683C25.0052 9.06683 24.9085 9.1035 24.8085 9.15016C24.7085 9.19683 24.6119 9.23349 24.5919 9.23349C24.5752 9.23349 24.4519 9.27683 24.3185 9.33016C24.0619 9.43016 23.6552 9.5835 23.3785 9.68349C23.2885 9.71683 23.0485 9.80016 22.8452 9.8735C22.6452 9.9435 22.4119 10.0235 22.3285 10.0468C22.2452 10.0702 22.1052 10.1168 22.0119 10.1502C21.6852 10.2668 21.3085 10.3902 20.9785 10.4935C20.7952 10.5502 20.4985 10.6402 20.3152 10.6968C20.1352 10.7535 19.9619 10.8002 19.9285 10.8002C19.8985 10.8002 19.7852 10.8302 19.6752 10.8702C19.5685 10.9068 19.4052 10.9502 19.3119 10.9702C19.2219 10.9868 19.0252 11.0368 18.8785 11.0768C18.7319 11.1202 18.4019 11.2035 18.1452 11.2635C17.8885 11.3235 17.5085 11.4168 17.3019 11.4702C17.0952 11.5235 16.8985 11.5668 16.8685 11.5668C16.8352 11.5668 16.6685 11.6035 16.4952 11.6468C16.3219 11.6902 16.1185 11.7368 16.0452 11.7502C15.9719 11.7602 15.7552 11.8068 15.5619 11.8502C14.9885 11.9768 13.5885 12.2535 13.2619 12.3068C13.1419 12.3235 12.8085 12.3835 12.5185 12.4368C12.2319 12.4902 11.9319 12.5335 11.8519 12.5335C11.7752 12.5335 11.5685 12.5568 11.3952 12.5835C11.2219 12.6135 10.9285 12.6568 10.7452 12.6835C10.2685 12.7568 9.33187 12.9835 8.8352 13.1535C8.52187 13.2602 8.37187 13.3135 8.22854 13.3768C8.1452 13.4135 8.0252 13.4602 7.95854 13.4835C7.8252 13.5302 7.0852 13.8935 6.87854 14.0102C6.75854 14.0768 6.5752 14.1868 6.42187 14.2835C6.1852 14.4335 5.79854 14.7068 5.74854 14.7635C5.71187 14.8002 5.6652 14.8335 5.63854 14.8335C5.6152 14.8335 5.5952 14.8468 5.5952 14.8602C5.5952 14.8768 5.5252 14.9368 5.44187 14.9968C5.22854 15.1535 4.55187 15.8268 4.25854 16.1835C3.95187 16.5535 3.65187 16.9868 3.40854 17.4168C3.2452 17.7068 2.8952 18.4468 2.8952 18.5102C2.8952 18.5302 2.8752 18.5868 2.85187 18.6335C2.7652 18.7968 2.58187 19.3902 2.44187 19.9668C2.3452 20.3468 2.3452 20.3568 2.3352 21.6002C2.32187 23.1202 2.3352 23.2435 2.6352 24.2668C2.8252 24.9168 3.0952 25.5335 3.43854 26.1168C3.4952 26.2068 3.5652 26.3302 3.59854 26.3902C3.63187 26.4468 3.67854 26.5202 3.70854 26.5568C3.7352 26.5902 3.86854 26.7668 4.0052 26.9502C4.5052 27.6302 5.36854 28.4635 6.06187 28.9368C6.18187 29.0168 6.2852 29.0902 6.2952 29.1002C6.31854 29.1268 6.75854 29.4135 6.87854 29.4802C6.9352 29.5135 7.0452 29.5768 7.12854 29.6235C7.48854 29.8268 8.6752 30.3902 9.32854 30.6668C9.4652 30.7268 9.6652 30.8168 9.77187 30.8702C9.87854 30.9235 9.9852 30.9668 10.0052 30.9668C10.0252 30.9668 10.1319 31.0102 10.2452 31.0635C10.4385 31.1568 10.6452 31.2502 11.1619 31.4668C11.6285 31.6635 11.7785 31.7268 12.0052 31.8302C12.1285 31.8868 12.2485 31.9335 12.2719 31.9335C12.2952 31.9335 12.3485 31.9568 12.3885 31.9868C12.4319 32.0168 12.5352 32.0668 12.6219 32.0968C12.7085 32.1302 12.8685 32.1968 12.9785 32.2468C13.1752 32.3368 13.2352 32.3635 13.7785 32.6235C13.9252 32.6902 14.1019 32.7835 14.1685 32.8235C14.2385 32.8668 14.3152 32.9002 14.3452 32.9002C14.3719 32.9002 14.3952 32.9102 14.3952 32.9235C14.3952 32.9402 14.4652 32.9902 14.5552 33.0402C14.7319 33.1402 15.0385 33.4235 15.2652 33.7002C15.4085 33.8735 15.6619 34.2768 15.6619 34.3302C15.6619 34.3435 15.6952 34.4202 15.7319 34.5002C15.8052 34.6502 15.8685 34.9035 15.9352 35.3002C16.0019 35.7168 15.9152 36.4468 15.7452 36.8502C15.6419 37.1002 15.4885 37.3835 15.3919 37.5068C15.3385 37.5735 15.2952 37.6368 15.2952 37.6468C15.2952 37.6735 14.9585 38.0268 14.7985 38.1702C14.7085 38.2502 14.3352 38.5002 14.3085 38.5002C14.2952 38.5002 14.2585 38.5235 14.2285 38.5502C14.1185 38.6502 13.5752 38.8335 13.2285 38.8902C12.7919 38.9602 11.8852 38.9668 11.5119 38.9068C11.2885 38.8668 10.9485 38.7602 10.6452 38.6302C10.5519 38.5902 10.3452 38.4702 10.1119 38.3168C9.8852 38.1702 9.8652 38.1568 9.71187 38.0168C9.64854 37.9602 9.57854 37.9002 9.5552 37.8802C9.53187 37.8602 9.4252 37.7468 9.31854 37.6302C9.21187 37.5135 9.0952 37.3835 9.06187 37.3468C9.0252 37.3068 8.9952 37.2602 8.9952 37.2435C8.9952 37.2235 8.9652 37.1835 8.92854 37.1502C8.89187 37.1168 8.8152 37.0068 8.7552 36.9035C8.6952 36.8002 8.62187 36.6702 8.58854 36.6168C8.5552 36.5602 8.5052 36.4635 8.4752 36.4002C8.44854 36.3368 8.38854 36.2135 8.34187 36.1302C8.29854 36.0435 8.26187 35.9502 8.26187 35.9235C8.26187 35.8935 8.2252 35.7835 8.18187 35.6768C8.13854 35.5702 8.05854 35.3668 8.00854 35.2235C7.9552 35.0768 7.89187 34.9535 7.8652 34.9402C7.79187 34.9102 7.34187 35.0702 6.8452 35.3002C6.77187 35.3335 6.59187 35.4168 6.4452 35.4835C6.29854 35.5502 6.0752 35.6535 5.9452 35.7168C5.81854 35.7768 5.5852 35.8868 5.42854 35.9602C5.27187 36.0335 4.97187 36.1768 4.76187 36.2768C4.55187 36.3768 4.25854 36.5168 4.11187 36.5835C3.9652 36.6535 3.58187 36.8368 3.26187 36.9935C2.94187 37.1468 2.59854 37.3102 2.50187 37.3535L2.32187 37.4335L2.3452 37.6068C2.35854 37.7035 2.4052 37.8835 2.44854 38.0035C2.49187 38.1268 2.52854 38.2435 2.52854 38.2635C2.52854 38.2868 2.55854 38.3668 2.59187 38.4468C2.62854 38.5235 2.67854 38.6468 2.7052 38.7202C2.8552 39.1202 3.22854 39.8902 3.34187 40.0335C3.3652 40.0602 3.4452 40.1868 3.5252 40.3168C3.60187 40.4435 3.69187 40.5868 3.7252 40.6335C3.76187 40.6802 3.8852 40.8502 4.0052 41.0168C4.1252 41.1802 4.25187 41.3435 4.2852 41.3735C4.31854 41.4068 4.38187 41.4768 4.42854 41.5335C4.6252 41.7702 5.1352 42.2768 5.3952 42.4968C5.94854 42.9568 6.04854 43.0335 6.39187 43.2502C6.42187 43.2668 6.50854 43.3235 6.5852 43.3735C6.66187 43.4268 6.73187 43.4668 6.74187 43.4668C6.75187 43.4668 6.8252 43.5102 6.9052 43.5668C6.98854 43.6202 7.07187 43.6668 7.09187 43.6668C7.10854 43.6668 7.18187 43.7035 7.24854 43.7502C7.31854 43.7968 7.41187 43.8435 7.45854 43.8568C7.5052 43.8668 7.60187 43.9135 7.66854 43.9568C7.73854 43.9968 7.80854 44.0335 7.82854 44.0335C7.8452 44.0335 7.95854 44.0768 8.07854 44.1335C8.19854 44.1868 8.32187 44.2335 8.3552 44.2335C8.38854 44.2335 8.42854 44.2468 8.4452 44.2635C8.4652 44.2802 8.5752 44.3235 8.6952 44.3602C8.8152 44.3968 9.03187 44.4668 9.17854 44.5102C9.3252 44.5568 9.5052 44.6035 9.57854 44.6168C9.65187 44.6302 9.8652 44.6768 10.0552 44.7202C10.5385 44.8302 10.9585 44.8702 11.8785 44.8902C12.6352 44.9068 13.4885 44.8702 14.0952 44.7968C14.5652 44.7402 15.4119 44.5268 15.9385 44.3302C16.0819 44.2768 16.2119 44.2335 16.2285 44.2335C16.2452 44.2335 16.3385 44.1968 16.4352 44.1535C16.5319 44.1102 16.7385 44.0168 16.8952 43.9468C17.2152 43.8068 17.8019 43.4902 18.0219 43.3368C18.0719 43.3035 18.1919 43.2268 18.2885 43.1668C18.3885 43.1068 18.4852 43.0402 18.5052 43.0202C18.5285 43.0002 18.6352 42.9168 18.7452 42.8368C19.2419 42.4702 19.8619 41.8668 20.3552 41.2768C20.5419 41.0502 20.6952 40.8535 20.6952 40.8368C20.6952 40.8202 20.7185 40.7868 20.7485 40.7635C20.7952 40.7235 21.0819 40.3135 21.2319 40.0702C21.5985 39.4802 22.0285 38.5168 22.1285 38.0668C22.1419 38.0035 22.1852 37.8535 22.2219 37.7335C22.2619 37.6135 22.3352 37.2768 22.3852 36.9835C22.4752 36.4635 22.4785 36.4202 22.4785 35.2002C22.4785 33.9535 22.4785 33.9502 22.3852 33.5168C22.2919 33.0902 22.1685 32.6468 22.0719 32.3835C22.0419 32.3102 22.0019 32.1968 21.9752 32.1302C21.8652 31.8268 21.3785 30.8802 21.2752 30.7635C21.2485 30.7368 21.2285 30.7002 21.2285 30.6868C21.2285 30.6735 21.1185 30.5202 20.9885 30.3435C20.8552 30.1668 20.7219 29.9935 20.6952 29.9535C20.5852 29.8035 20.1752 29.3768 19.7952 29.0202C19.7252 28.9535 19.3485 28.6502 19.0285 28.4002C18.8052 28.2302 18.6252 28.1002 18.6085 28.1002C18.5985 28.1002 18.5452 28.0668 18.4919 28.0235C18.4419 27.9835 18.2985 27.8902 18.1785 27.8168C18.0585 27.7435 17.9052 27.6502 17.8419 27.6068C17.7785 27.5668 17.7119 27.5335 17.6952 27.5335C17.6785 27.5335 17.5985 27.4902 17.5185 27.4335C17.4352 27.3802 17.3519 27.3335 17.3319 27.3335C17.3119 27.3335 17.2385 27.3002 17.1685 27.2568C17.0219 27.1668 16.3185 26.8202 15.9619 26.6668C15.8252 26.6068 15.6219 26.5168 15.5119 26.4635C15.1352 26.2868 14.8619 26.1668 14.8419 26.1668C14.8285 26.1668 14.7285 26.1235 14.6152 26.0702C14.5052 26.0202 14.3152 25.9335 14.1952 25.8835C13.7219 25.6835 13.5019 25.5868 13.3052 25.4968C13.1919 25.4435 13.0852 25.4002 13.0685 25.4002C13.0485 25.4002 12.9452 25.3535 12.8352 25.3002C12.7219 25.2435 12.6152 25.2002 12.5985 25.2002C12.5785 25.2002 12.4852 25.1635 12.3885 25.1202C12.2919 25.0768 12.0985 24.9935 11.9619 24.9335C11.8252 24.8735 11.6185 24.7835 11.5052 24.7302C11.3919 24.6768 11.2885 24.6335 11.2752 24.6335C11.2319 24.6335 10.4019 24.2035 10.2085 24.0802C9.96187 23.9235 9.36187 23.3268 9.36187 23.2402C9.36187 23.2235 9.31854 23.1535 9.26187 23.0802C9.20854 23.0102 9.16187 22.9368 9.16187 22.9235C9.16187 22.9102 9.12854 22.8268 9.08854 22.7402C8.89187 22.3068 8.7852 21.5802 8.85854 21.1468C8.93187 20.7168 9.11854 20.2035 9.2752 19.9902C9.43187 19.7802 9.71187 19.4502 9.74187 19.4368C9.75854 19.4302 9.80854 19.3902 9.8452 19.3535C9.9352 19.2635 10.1852 19.1035 10.4452 18.9768C10.6685 18.8635 11.1685 18.6668 11.2319 18.6668C11.2819 18.6668 11.8352 18.5035 12.2485 18.3668C12.4152 18.3102 12.5719 18.2668 12.5985 18.2668C12.6219 18.2668 12.7419 18.2335 12.8619 18.1902C12.9819 18.1468 13.2352 18.0635 13.4285 18.0002C13.7885 17.8868 14.1619 17.7635 14.5119 17.6435C14.7185 17.5702 14.7819 17.5468 15.1785 17.4102C15.3085 17.3668 15.5252 17.2868 15.6652 17.2335C15.8019 17.1768 15.9385 17.1335 15.9652 17.1335C15.9919 17.1335 16.1019 17.0868 16.2119 17.0335C16.3219 16.9768 16.4285 16.9335 16.4519 16.9335C16.4752 16.9335 16.5719 16.8968 16.6719 16.8535C16.7685 16.8068 16.9085 16.7502 16.9785 16.7235C17.0519 16.6968 17.2385 16.6202 17.3952 16.5502C17.5519 16.4835 17.7685 16.3902 17.8752 16.3468C17.9852 16.3035 18.1052 16.2435 18.1485 16.2168C18.1919 16.1902 18.2419 16.1668 18.2585 16.1668C18.3019 16.1668 19.6585 15.5302 20.0452 15.3268C20.1185 15.2902 20.3752 15.1568 20.6119 15.0335C21.0119 14.8268 21.4019 14.6168 21.7885 14.3968C21.8752 14.3468 22.0185 14.2668 22.1119 14.2168C22.2019 14.1668 22.2852 14.1168 22.2952 14.1068C22.3052 14.0935 22.3785 14.0468 22.4619 14.0035C22.6285 13.9135 22.9185 13.7368 23.1619 13.5735C23.2519 13.5168 23.3385 13.4668 23.3485 13.4668C23.3619 13.4668 23.4252 13.4268 23.4919 13.3735C23.5585 13.3235 23.6352 13.2668 23.6685 13.2502C23.6985 13.2302 23.8052 13.1702 23.9019 13.1135C24.0019 13.0535 24.1019 12.9835 24.1252 12.9535C24.1485 12.9235 24.1852 12.9002 24.2019 12.9002C24.2219 12.9002 24.2919 12.8535 24.3619 12.8002C24.4319 12.7435 24.5019 12.7002 24.5219 12.7002C24.5385 12.7002 24.5719 12.6768 24.5952 12.6502C24.6185 12.6202 24.7619 12.5135 24.9085 12.4135C25.3519 12.1135 25.6385 11.9035 25.7285 11.8168C25.7752 11.7702 25.8319 11.7335 25.8519 11.7335C25.8719 11.7335 25.8952 11.7202 25.9019 11.7068C25.9085 11.6902 25.9819 11.6235 26.0652 11.5602C26.1519 11.4968 26.2419 11.4268 26.2652 11.4068C26.2919 11.3835 26.4252 11.2768 26.5619 11.1668C26.6985 11.0535 26.8619 10.9202 26.9252 10.8668C26.9885 10.8102 27.0485 10.7668 27.0585 10.7668C27.0719 10.7668 27.1219 10.7268 27.1685 10.6735C27.2185 10.6235 27.2852 10.5602 27.3185 10.5335C27.4985 10.3835 27.8952 10.0402 27.9952 9.94683C28.7419 9.25016 29.8619 8.1435 29.8619 8.09683C29.8619 8.0535 29.7585 8.06016 29.6552 8.11349Z" fill="white"/>
<path d="M29.1118 10.9902C28.8018 11.0335 28.0118 11.2069 27.9751 11.2369C27.8618 11.3302 27.9384 11.4269 28.2384 11.5802C28.3951 11.6569 28.4418 11.7302 28.4951 11.9669C28.5484 12.2169 28.5951 12.3335 28.6451 12.3335C28.6884 12.3335 28.7951 12.2302 28.7951 12.1869C28.7951 12.1735 28.8318 12.1135 28.8784 12.0535C28.9251 11.9935 28.9618 11.9335 28.9618 11.9202C28.9618 11.9035 28.9951 11.8469 29.0384 11.7902C29.1218 11.6702 29.2384 11.4702 29.3151 11.3002C29.3451 11.2369 29.3918 11.1569 29.4184 11.1269C29.4484 11.0935 29.4618 11.0469 29.4518 11.0169C29.4318 10.9669 29.3351 10.9602 29.1118 10.9902Z" fill="white"/>
<path d="M27.132 12.3235C27.1053 12.3335 26.9353 12.4568 26.752 12.5968C26.1986 13.0168 25.5986 13.4502 25.1086 13.7835C24.962 13.8835 24.8186 13.9868 24.7953 14.0168C24.772 14.0435 24.742 14.0668 24.7286 14.0668C24.7153 14.0668 24.6153 14.1268 24.5086 14.2002C24.3986 14.2768 24.252 14.3735 24.1786 14.4202C24.1053 14.4668 23.9353 14.5802 23.8053 14.6702C23.672 14.7602 23.552 14.8335 23.5386 14.8335C23.522 14.8368 23.4586 14.8802 23.3953 14.9335C23.332 14.9902 23.2686 15.0335 23.2553 15.0335C23.242 15.0335 23.112 15.1135 22.9653 15.2068C22.6686 15.4035 22.5453 15.4802 22.352 15.5935C22.2786 15.6335 22.182 15.6968 22.1353 15.7335C22.092 15.7702 22.0353 15.8002 22.012 15.8002C21.9886 15.8002 21.952 15.8202 21.932 15.8468C21.9086 15.8735 21.8286 15.9268 21.752 15.9668C21.6753 16.0035 21.5153 16.0968 21.3953 16.1702C21.2753 16.2402 21.1186 16.3335 21.0453 16.3702C20.972 16.4068 20.822 16.4902 20.712 16.5502C20.602 16.6135 20.4386 16.7035 20.3453 16.7502C20.2553 16.7968 20.0153 16.9268 19.812 17.0335C19.612 17.1402 19.392 17.2535 19.3286 17.2868C19.2653 17.3168 19.1753 17.3602 19.1286 17.3835C18.862 17.5268 17.4353 18.2202 17.1453 18.3502C17.092 18.3735 16.912 18.4568 16.7486 18.5302C16.5853 18.6068 16.442 18.6668 16.4253 18.6668C16.412 18.6668 16.3053 18.7102 16.1886 18.7635C15.982 18.8568 15.822 18.9202 15.5286 19.0302C15.3253 19.1068 15.0286 19.2635 15.0286 19.2935C15.0286 19.3468 15.1486 19.4935 15.4453 19.8002C15.612 19.9735 15.7953 20.1768 15.8486 20.2502C15.902 20.3235 15.952 20.3902 15.962 20.4002C16.062 20.4868 16.4386 21.2568 16.5953 21.6835C16.6353 21.7935 16.6886 21.9368 16.712 22.0002C16.7353 22.0635 16.782 22.1235 16.812 22.1268C16.8453 22.1335 17.052 22.0502 17.2753 21.9402C17.4953 21.8302 17.8586 21.6568 18.0786 21.5502C18.8686 21.1702 19.7153 20.7635 19.812 20.7102C19.8686 20.6802 19.9353 20.6435 19.962 20.6335C20.0186 20.6068 21.032 20.1102 21.6753 19.7968C21.9086 19.6802 22.112 19.5668 22.1186 19.5435C22.1353 19.5002 21.772 18.7268 21.6553 18.5602C21.622 18.5135 21.5953 18.4568 21.5953 18.4368C21.5953 18.4068 21.5453 18.3268 21.3186 17.9902L21.2553 17.8935L21.3686 17.7968C21.4286 17.7468 21.492 17.7035 21.5053 17.7002C21.5386 17.7002 21.742 17.5568 21.7553 17.5235C21.762 17.5102 21.7886 17.5002 21.8153 17.5002C21.842 17.5002 21.8886 17.4735 21.922 17.4402C21.952 17.4102 22.0486 17.3368 22.1353 17.2835C22.2253 17.2268 22.2953 17.1735 22.2953 17.1568C22.2953 17.1435 22.312 17.1335 22.332 17.1335C22.352 17.1335 22.4186 17.0935 22.4786 17.0402C22.5386 16.9902 22.652 16.9035 22.7286 16.8502C22.8086 16.7935 22.932 16.7002 23.0086 16.6402C23.0853 16.5835 23.162 16.5235 23.1786 16.5068C23.1986 16.4935 23.2886 16.4235 23.3786 16.3502C23.472 16.2768 23.572 16.1935 23.6086 16.1668C23.6686 16.1202 23.802 16.0035 23.9453 15.8702C23.982 15.8368 24.1486 15.6935 24.312 15.5502C24.6453 15.2602 25.8186 14.0868 26.0786 13.7802C26.2786 13.5468 26.432 13.3802 26.5453 13.2668C26.592 13.2202 26.6286 13.1735 26.6286 13.1635C26.6286 13.1502 26.6786 13.0902 26.742 13.0235C26.932 12.8202 27.2653 12.3635 27.2453 12.3302C27.222 12.2968 27.202 12.2968 27.132 12.3235Z" fill="white"/>
<path d="M35.1172 16.4094V44.3047H30.5415V16.4094H35.1172Z" fill="white"/>
<path d="M48.9183 16.2571C51.8884 16.2571 54.484 16.8324 56.7049 17.983C58.9526 19.1068 60.6785 20.739 61.8826 22.8797C63.1134 24.9936 63.7289 27.4687 63.7289 30.305C63.7289 33.1414 63.1134 35.6031 61.8826 37.6903C60.6785 39.7774 58.9526 41.3829 56.7049 42.5067C54.484 43.6038 51.8884 44.1523 48.9183 44.1523H39.8072V16.2571H48.9183ZM48.9183 40.4196C52.1828 40.4196 54.6846 39.5366 56.4239 37.7705C58.1632 36.0045 59.0328 33.516 59.0328 30.305C59.0328 27.0673 58.1632 24.5387 56.4239 22.7191C54.6846 20.8996 52.1828 19.9898 48.9183 19.9898H44.3828V40.4196H48.9183Z" fill="white"/>
<path d="M76.7073 16.5656C79.6775 16.5656 82.273 17.1409 84.4939 18.2915C86.7416 19.4154 88.4675 21.0476 89.6716 23.1883C90.9025 25.3022 91.5179 27.7773 91.5179 30.6136C91.5179 33.45 90.9025 35.9117 89.6716 37.9989C88.4675 40.086 86.7416 41.6915 84.4939 42.8153C82.273 43.9124 79.6775 44.4609 76.7073 44.4609H67.5962V16.5656H76.7073ZM76.7073 40.7282C79.9718 40.7282 82.4737 39.8452 84.213 38.0791C85.9523 36.3131 86.8219 33.8246 86.8219 30.6136C86.8219 27.3759 85.9523 24.8473 84.213 23.0277C82.4737 21.2082 79.9718 20.2984 76.7073 20.2984H72.1719V40.7282H76.7073Z" fill="white"/>
<path d="M117.661 16.1047V44H113.086V31.7983H99.9609V44H95.3853V16.1047H99.9609V28.0656H113.086V16.1047H117.661Z" fill="white"/>
<path d="M127.734 16.718V44.6133H123.159V16.718H127.734Z" fill="white"/>
</svg>
